<svg xmlns="http://www.w3.org/2000/svg" xmlns:xlink="http://www.w3.org/1999/xlink"><defs>
<filter id="filter0_i_229_490" x="0.649292" y="-3.19312" width="61.5798" height="62.9601" filterUnits="userSpaceOnUse" color-interpolation-filters="sRGB">
<feFlood flood-opacity="0" result="BackgroundImageFix"/>
<feBlend mode="normal" in="SourceGraphic" in2="BackgroundImageFix" result="shape"/>
<feColorMatrix in="SourceAlpha" type="matrix" values="0 0 0 0 0 0 0 0 0 0 0 0 0 0 0 0 0 0 127 0" result="hardAlpha"/>
<feOffset dx="2" dy="-4"/>
<feGaussianBlur stdDeviation="10"/>
<feComposite in2="hardAlpha" operator="arithmetic" k2="-1" k3="1"/>
<feColorMatrix type="matrix" values="0 0 0 0 0 0 0 0 0 0 0 0 0 0 0 0 0 0 1 0"/>
<feBlend mode="normal" in2="shape" result="effect1_innerShadow_229_490"/>
</filter>

<clipPath id="clip0_228_781">
<rect width="14" height="16" fill="white"/>
</clipPath>
</defs><symbol id="arrow" viewBox="0 0 16 15"><g fill="none">
<path d="M7.26487 0.124634L5.75135 1.97869C7.94595 3.98409 10.8216 5.83815 14.1892 6.74626L5.52432 6.06517H0V8.18409H5.52432L14.1892 7.50301C10.8216 8.41112 7.94595 10.2652 5.75135 12.2706L7.26487 14.1246C9.64865 10.8327 12.0324 8.97869 15.6649 7.80571V6.44355C12.0324 5.27058 9.64865 3.41653 7.26487 0.124634Z" fill="#F7D960"/>
</g></symbol><symbol id="fb" viewBox="0 0 10 16"><g fill="none">
<path d="M8.72314 9L9.16752 6.10437H6.38908V4.22531C6.38908 3.43313 6.77721 2.66094 8.02158 2.66094H9.28471V0.195625C9.28471 0.195625 8.13846 0 7.04252 0C4.75439 0 3.25877 1.38688 3.25877 3.8975V6.10437H0.715332V9H3.25877V16H6.38908V9H8.72314Z" fill="white"/>
</g></symbol><symbol id="headphones" viewBox="0 0 61 60"><g fill="none">
<g filter="url(#filter0_i_229_490)">
<ellipse cx="30.4392" cy="30.2869" rx="34" ry="24.5" transform="rotate(44.0555 30.4392 30.2869)" fill="#1F1F1F"/>
</g>

</g></symbol><symbol id="hero-sun" viewBox="0 0 304 304"><g fill="none">
<path d="M200.632 167.771C219.588 180.266 249.16 192.585 291.648 210.278C249.959 192.92 220.702 180.738 198.623 175.892C193.16 174.694 188.965 180.706 192.019 185.392C204.444 204.44 226.679 227.17 258.719 259.357C227.233 227.779 204.829 205.689 186.04 193.069C181.429 189.974 175.356 194.013 176.433 199.462C180.821 221.673 192.554 250.877 209.532 292.134C209.532 292.134 209.532 292.134 209.529 292.134C192.204 250.132 179.82 220.832 167.044 202.01C163.902 197.384 156.734 198.931 155.73 204.433C151.674 226.671 151.612 258.362 151.527 303.519C151.613 257.496 151.671 225.459 147.462 203.149C146.418 197.612 139.19 196.162 136.088 200.864C123.592 219.82 111.273 249.392 93.58 291.88C110.938 250.191 123.12 220.934 127.963 198.856C129.161 193.393 123.15 189.198 118.464 192.252C99.4152 204.676 76.6858 226.912 44.4982 258.951C76.0758 227.465 98.1664 205.061 110.786 186.272C113.882 181.661 109.843 175.589 104.394 176.666C82.1827 181.053 52.9779 192.783 11.7212 209.764C11.7212 209.764 11.7212 209.764 11.7212 209.761C53.7238 192.436 83.0236 180.052 101.842 167.276C106.468 164.134 104.922 156.967 99.419 155.963C77.1814 151.907 45.4902 151.844 0.333404 151.759C46.3567 151.846 78.393 151.903 100.704 147.694C106.237 146.651 107.69 139.422 102.988 136.32C84.0323 123.824 54.4607 111.506 11.9726 93.8124C53.6616 111.171 82.9181 123.353 104.997 128.199C110.46 129.397 114.655 123.385 111.601 118.699C99.1763 99.6506 76.9405 76.9212 44.901 44.7336C76.3873 76.3112 98.791 98.4016 117.58 111.021C122.191 114.117 128.264 110.078 127.186 104.629C122.799 82.418 111.066 53.2132 94.0882 11.9565C94.0882 11.9565 94.0881 11.9565 94.0912 11.9566C111.416 53.9591 123.8 83.259 136.576 102.081C139.718 106.707 146.886 105.16 147.89 99.6573C151.946 77.4197 152.009 45.7287 152.093 0.571875C152.007 46.5951 151.949 78.6315 156.158 100.942C157.202 106.479 164.43 107.929 167.532 103.227C180.028 84.2706 192.347 54.699 210.04 12.2109C192.682 53.8999 180.5 83.1565 175.654 105.235C174.456 110.698 180.467 114.893 185.153 111.839C204.202 99.4148 226.931 77.179 259.119 45.1394C227.541 76.6257 205.451 99.0294 192.831 117.819C189.735 122.43 193.774 128.502 199.223 127.425C221.434 123.037 250.639 111.308 291.896 94.3265C291.896 94.3265 291.896 94.3266 291.896 94.3296C249.893 111.655 220.593 124.039 201.771 136.815C197.146 139.957 198.692 147.124 204.195 148.128C226.433 152.184 258.124 152.247 303.281 152.332C257.257 152.245 225.221 152.188 202.91 156.396C197.383 157.443 195.93 164.672 200.632 167.771Z" fill="#F7D960"/>
</g></symbol><symbol id="hero-work" viewBox="0 0 41 41"><g fill="none">
<path d="M20.5 41V0" stroke="#F7D960" stroke-width="1.23" stroke-miterlimit="10"/>
<path d="M15.1942 40.3014L25.8058 0.698669" stroke="#F7D960" stroke-width="1.23" stroke-miterlimit="10"/>
<path d="M10.25 38.2534L30.75 2.74658" stroke="#F7D960" stroke-width="1.23" stroke-miterlimit="10"/>
<path d="M6.00439 34.9955L34.9955 6.00439" stroke="#F7D960" stroke-width="1.23" stroke-miterlimit="10"/>
<path d="M2.74658 30.75L38.2534 10.25" stroke="#F7D960" stroke-width="1.23" stroke-miterlimit="10"/>
<path d="M0.69873 25.8058L40.3014 15.1942" stroke="#F7D960" stroke-width="1.23" stroke-miterlimit="10"/>
<path d="M0 20.5H41" stroke="#F7D960" stroke-width="1.23" stroke-miterlimit="10"/>
<path d="M0.69873 15.1942L40.3014 25.8058" stroke="#F7D960" stroke-width="1.23" stroke-miterlimit="10"/>
<path d="M2.74658 10.25L38.2534 30.75" stroke="#F7D960" stroke-width="1.23" stroke-miterlimit="10"/>
<path d="M6.00439 6.00439L34.9955 34.9955" stroke="#F7D960" stroke-width="1.23" stroke-miterlimit="10"/>
<path d="M10.25 2.74658L30.75 38.2534" stroke="#F7D960" stroke-width="1.23" stroke-miterlimit="10"/>
<path d="M15.1942 0.698669L25.8058 40.3014" stroke="#F7D960" stroke-width="1.23" stroke-miterlimit="10"/>
</g></symbol><symbol id="inst" viewBox="0 0 14 16"><g fill="none">
<g clip-path="url(#clip0_228_781)">
<path d="M7.00352 10.3309C5.71914 10.3309 4.66914 9.28398 4.66914 7.99648C4.66914 6.70898 5.71602 5.66211 7.00352 5.66211C8.29102 5.66211 9.33789 6.70898 9.33789 7.99648C9.33789 9.28398 8.28789 10.3309 7.00352 10.3309Z" fill="white"/>
<path fill-rule="evenodd" clip-rule="evenodd" d="M12.4629 12.1246C12.2191 12.7371 11.7473 13.209 11.1316 13.4559C10.341 13.7695 8.61921 13.752 7.50242 13.7407C7.31713 13.7388 7.14849 13.7371 7.00352 13.7371C6.86132 13.7371 6.69628 13.7387 6.51506 13.7404C5.398 13.7511 3.6659 13.7678 2.87539 13.4559C2.26289 13.2121 1.79102 12.7402 1.54414 12.1246C1.23055 11.3339 1.24799 9.61218 1.2593 8.49539C1.26118 8.31009 1.26289 8.14146 1.26289 7.99648C1.26289 7.85428 1.26131 7.68925 1.25957 7.50803C1.24885 6.39097 1.23224 4.65887 1.54414 3.86836C1.78789 3.25586 2.25977 2.78398 2.87539 2.53711C3.66608 2.22351 5.38782 2.24096 6.50461 2.25227C6.68991 2.25415 6.85854 2.25586 7.00352 2.25586C7.14572 2.25586 7.31075 2.25428 7.49197 2.25254C8.60903 2.24182 10.3411 2.22521 11.1316 2.53711C11.7441 2.78086 12.216 3.25273 12.4629 3.86836C12.7765 4.65905 12.759 6.38079 12.7477 7.49758C12.7458 7.68287 12.7441 7.85151 12.7441 7.99648C12.7441 8.14143 12.7458 8.3101 12.7477 8.49545C12.759 9.61284 12.7765 11.3366 12.4629 12.1246ZM3.41289 7.99648C3.41289 6.00898 5.01602 4.40586 7.00352 4.40586C8.99102 4.40586 10.5941 6.00898 10.5941 7.99648C10.5941 9.98398 8.99102 11.5871 7.00352 11.5871C5.01602 11.5871 3.41289 9.98398 3.41289 7.99648ZM10.741 5.09648C11.2035 5.09648 11.5785 4.72461 11.5785 4.25898C11.5785 3.79648 11.2035 3.42148 10.741 3.42148C10.2785 3.42148 9.90352 3.79648 9.90352 4.25898C9.90352 4.72148 10.2754 5.09648 10.741 5.09648Z" fill="white"/>
<path fill-rule="evenodd" clip-rule="evenodd" d="M13.9566 5.10898C13.9035 3.98711 13.6473 2.99336 12.8254 2.17461C12.0066 1.35586 11.0129 1.09961 9.89102 1.04336C8.73477 0.977734 5.26914 0.977734 4.11289 1.04336C2.99414 1.09648 2.00039 1.35273 1.17852 2.17148C0.356641 2.99023 0.103516 3.98398 0.0472656 5.10586C-0.0183594 6.26211 -0.0183594 9.72773 0.0472656 10.884C0.100391 12.0059 0.356641 12.9996 1.17852 13.8184C2.00039 14.6371 2.99102 14.8934 4.11289 14.9496C5.26914 15.0152 8.73477 15.0152 9.89102 14.9496C11.0129 14.8965 12.0066 14.6402 12.8254 13.8184C13.6441 12.9996 13.9004 12.0059 13.9566 10.884C14.0223 9.72773 14.0223 6.26523 13.9566 5.10898ZM12.4629 12.1246C12.2191 12.7371 11.7473 13.209 11.1316 13.4559C10.341 13.7695 8.61921 13.752 7.50242 13.7407C7.31713 13.7388 7.14849 13.7371 7.00352 13.7371C6.86132 13.7371 6.69628 13.7387 6.51506 13.7404C5.398 13.7511 3.6659 13.7678 2.87539 13.4559C2.26289 13.2121 1.79102 12.7402 1.54414 12.1246C1.23055 11.3339 1.24799 9.61218 1.2593 8.49539C1.26118 8.31009 1.26289 8.14146 1.26289 7.99648C1.26289 7.85428 1.26131 7.68925 1.25957 7.50803C1.24885 6.39097 1.23224 4.65887 1.54414 3.86836C1.78789 3.25586 2.25977 2.78398 2.87539 2.53711C3.66608 2.22351 5.38782 2.24096 6.50461 2.25227C6.68991 2.25415 6.85854 2.25586 7.00352 2.25586C7.14572 2.25586 7.31075 2.25428 7.49197 2.25254C8.60903 2.24182 10.3411 2.22521 11.1316 2.53711C11.7441 2.78086 12.216 3.25273 12.4629 3.86836C12.7765 4.65905 12.759 6.38079 12.7477 7.49758C12.7458 7.68287 12.7441 7.85151 12.7441 7.99648C12.7441 8.14143 12.7458 8.3101 12.7477 8.49545C12.759 9.61284 12.7765 11.3366 12.4629 12.1246Z" fill="white"/>
</g>

</g></symbol><symbol id="smiley" viewBox="0 0 25 24"><g fill="none">
<path d="M23.4753 12.2364C23.4814 11.4607 24.1877 10.6761 23.9518 9.8945C23.6612 8.93197 22.3126 8.59465 21.7573 7.8155C21.357 7.25412 21.5058 6.56261 21.3271 5.93291C21.0846 5.07802 20.2662 4.67441 19.5326 4.29124C18.6924 3.85256 17.7896 3.48783 17.0156 2.93319C16.5603 2.60687 16.1879 2.18033 15.7266 1.86301C14.6912 1.1506 13.3096 0.997777 12.0872 1.00002C10.3202 1.00317 8.55579 1.40388 6.87322 1.92459C5.59089 2.32124 3.78629 2.72283 3.64224 4.29124C3.57324 5.04162 3.24289 5.44995 2.69634 5.95448C2.25833 6.35877 1.00994 7.16197 1.12591 7.86291C1.27378 8.75644 3.26806 8.96882 3.05658 9.97226C2.84848 10.9593 1.01736 11.1883 1.00185 12.2367C0.990616 12.9875 1.02882 13.7496 1.16254 14.5011C1.28547 15.1926 1.25041 15.9452 1.49289 16.6104C1.86797 17.6397 3.37975 18.0226 4.25216 18.5188C4.59892 18.7161 5.07513 18.9532 5.24211 19.344C5.35852 19.6166 5.30616 19.8982 5.27694 20.1821C5.21918 20.7466 5.33987 21.1421 5.80349 21.4961C6.37117 21.9296 7.04941 22.2656 7.70181 22.5487C9.10886 23.1593 10.64 23.4708 12.1713 23.4733C15.0205 23.4778 18.0993 22.3615 20.0102 20.1821C20.9042 19.1625 21.6008 17.9428 22.1456 16.7059C22.4447 16.027 22.6477 15.3247 22.8216 14.6053C23.0113 13.8204 23.4688 13.0549 23.4753 12.2364Z" stroke="#F7D960" stroke-width="0.674198" stroke-miterlimit="10"/>
<path d="M7.6044 6.49055L7.60441 6.49054C7.64016 6.44785 7.67945 6.39894 7.72181 6.34621C7.83725 6.20251 7.97541 6.03052 8.12644 5.87926C8.22955 5.776 8.3382 5.68289 8.44906 5.61549C8.55996 5.54808 8.67242 5.50678 8.78334 5.50618L8.78334 5.50618C8.89934 5.50552 8.98405 5.54533 9.04567 5.60992C9.10762 5.67486 9.14698 5.76562 9.17027 5.8678C9.21688 6.07226 9.19831 6.31847 9.17265 6.48202C9.15735 6.57951 9.13592 6.67752 9.11425 6.77658C9.09913 6.84568 9.08391 6.9153 9.07057 6.98561C9.0383 7.15576 9.01766 7.32787 9.03911 7.49894L9.03911 7.49895C9.0807 7.82741 9.31279 8.09111 9.59074 8.31226C9.72989 8.42296 9.88102 8.52338 10.0264 8.61619C10.0687 8.64317 10.1104 8.6695 10.1513 8.69524C10.2511 8.75816 10.3454 8.8176 10.4282 8.87474C10.4652 8.90026 10.5036 8.92623 10.5428 8.95273C10.7494 9.0924 10.9781 9.24696 11.1382 9.4299C11.2333 9.53849 11.3036 9.6564 11.3308 9.78631C11.358 9.916 11.3424 10.0586 11.2641 10.2172C11.1622 10.4241 10.9915 10.6087 10.8021 10.7773C10.6755 10.8901 10.5411 10.9951 10.4136 11.0947C10.3503 11.1442 10.2888 11.1923 10.2307 11.2394C10.1484 11.306 10.0497 11.4011 9.94124 11.5058L9.9345 11.5123C9.82774 11.6153 9.71156 11.7274 9.59171 11.8317C9.46931 11.9383 9.34342 12.0363 9.22027 12.1079C9.09698 12.1796 8.97741 12.2243 8.86745 12.2252C8.72936 12.2265 8.6401 12.1847 8.58545 12.1187C8.53047 12.0523 8.50886 11.9595 8.51042 11.8555C8.51356 11.6474 8.60949 11.401 8.70244 11.2537C8.75605 11.1687 8.82177 11.082 8.89131 10.9931C8.9067 10.9734 8.92227 10.9536 8.93794 10.9337C8.99297 10.8637 9.04914 10.7923 9.10221 10.7195C9.2385 10.5325 9.35587 10.3341 9.38345 10.1214C9.42339 9.81304 9.24958 9.56477 9.01597 9.36041C8.8425 9.20865 8.63419 9.07958 8.45276 8.96716C8.39005 8.9283 8.33055 8.89143 8.27681 8.85631C8.21061 8.81301 8.13148 8.76565 8.04537 8.71411C7.86947 8.60883 7.66442 8.4861 7.48078 8.34492C7.20716 8.13457 6.98647 7.88701 6.98272 7.60212C6.98018 7.40873 7.07704 7.20013 7.20465 7.00444C7.31802 6.83059 7.45464 6.6684 7.56473 6.53772C7.57839 6.5215 7.59165 6.50576 7.6044 6.49055ZM9.12509 6.77963C9.07313 7.01727 9.02032 7.2588 9.05026 7.49754L7.59579 6.48333C7.6313 6.44094 7.67043 6.39222 7.71267 6.33964C7.98596 5.99943 8.38951 5.49708 8.78328 5.49494C9.25904 5.49225 9.23522 6.15566 9.18375 6.48377C9.16844 6.58138 9.14684 6.68016 9.12509 6.77963Z" fill="#F7D960" stroke="#F7D960" stroke-width="0.0224733"/>
<path d="M15.5254 5.50578L15.5254 5.50578C15.4152 5.50605 15.303 5.54707 15.1922 5.61429C15.0814 5.68148 14.9726 5.77444 14.8693 5.87762C14.7155 6.03124 14.5748 6.20645 14.4582 6.35166C14.418 6.4017 14.3807 6.44817 14.3467 6.48898C14.3363 6.50153 14.3257 6.51422 14.315 6.52705C14.199 6.66584 14.0704 6.81985 13.963 6.98467C13.8457 7.16472 13.7545 7.35671 13.7328 7.55454C13.7012 7.84311 13.858 8.09079 14.0736 8.30606C14.2259 8.4582 14.406 8.59267 14.5674 8.71319C14.6346 8.76337 14.6985 8.81112 14.7559 8.85673C14.79 8.88386 14.8248 8.91111 14.8599 8.93861C15.0449 9.08361 15.2385 9.23534 15.3895 9.41142C15.5696 9.62133 15.6902 9.86689 15.6651 10.1786C15.6495 10.3707 15.5769 10.5522 15.4931 10.7289C15.4692 10.7794 15.4444 10.8294 15.4198 10.8791C15.3577 11.0042 15.2965 11.1278 15.2519 11.253C15.1894 11.4286 15.1564 11.6748 15.201 11.8756C15.2232 11.9758 15.2646 12.064 15.3304 12.1266C15.3959 12.1889 15.4866 12.2268 15.6095 12.2253C15.7148 12.224 15.8228 12.1812 15.9304 12.1121C16.038 12.043 16.1445 11.948 16.2467 11.8437C16.3489 11.7393 16.4465 11.6259 16.5364 11.5199C16.5472 11.5072 16.5579 11.4945 16.5685 11.482C16.6459 11.3907 16.7171 11.3066 16.7798 11.2415C16.8147 11.2052 16.8508 11.1683 16.8876 11.1308C17.0054 11.0106 17.1299 10.8834 17.2429 10.7481C17.3911 10.5706 17.5185 10.38 17.5838 10.1743C17.6767 9.88145 17.6105 9.6447 17.4696 9.43701C17.3358 9.23971 17.135 9.06915 16.9386 8.90233C16.9275 8.8929 16.9164 8.88349 16.9053 8.87409C16.8338 8.81324 16.7572 8.75195 16.6788 8.68925C16.5118 8.55572 16.3369 8.41585 16.1866 8.26049C15.9654 8.03171 15.7952 7.76728 15.7791 7.43543C15.7791 7.43543 15.7791 7.43543 15.7791 7.43542L15.5254 5.50578ZM15.5254 5.50578C15.6399 5.50545 15.7241 5.54499 15.7857 5.60911C15.8476 5.67357 15.8874 5.76361 15.9113 5.86516C15.9591 6.06838 15.9423 6.31385 15.9161 6.48003L15.9272 6.48178L15.5254 5.50578Z" fill="#F7D960" stroke="#F7D960" stroke-width="0.0224733"/>
<path d="M19.4714 15.2246C19.2741 14.8681 18.9208 14.5857 18.5241 14.4839C18.1142 14.3603 17.7086 14.463 17.3364 14.643M18.5241 14.4839C18.3909 15.2888 18.0753 16.0568 17.6585 16.7557C17.32 17.3231 17.0315 17.962 16.6308 18.4879C15.755 19.6372 14.0659 20.1055 12.6833 20.102C11.1282 20.0981 10.1245 19.1583 8.80153 18.4886C7.92237 18.0434 6.49015 17.6232 5.98765 16.7065C5.61392 16.0246 5.61594 15.2297 5.4829 14.4839H18.5241ZM6.66769 14.643C6.28205 14.4551 5.90922 14.3764 5.48268 14.4839C5.07389 14.5971 4.7087 14.8803 4.46509 15.2246L6.66769 14.643Z" stroke="#F7D960" stroke-width="0.674198" stroke-miterlimit="10" stroke-linecap="round"/>
</g></symbol><symbol id="sun-vector1.2" viewBox="0 0 322 275"><g fill="none">
<path d="M1.58583 176.971C41.6153 238.672 276.41 309.278 213.061 251.348C149.711 193.418 69.4164 73.8627 143.034 90.9703C247.489 117.45 261.432 113.67 240.607 91.3755M240.571 91.3455C240.571 91.3455 240.595 91.3655 240.607 91.3755M240.571 91.3455L240.607 91.3755M240.571 91.3455C172.036 23.6561 234.038 27.5236 320.5 2.27682" stroke="#FFE786" stroke-width="3" stroke-linecap="round"/>
</g></symbol><symbol id="sun-vector1" viewBox="0 0 321 274"><g fill="none">
<path d="M1.58571 175.971C41.6152 237.672 276.41 308.278 213.06 250.348C149.711 192.418 69.4162 72.8628 143.034 89.9703C247.489 116.45 261.396 112.64 240.571 90.3455C172.301 22.9174 233.561 26.4949 319.5 1.56788" stroke="#FFE786" stroke-width="3" stroke-linecap="round"/>
</g></symbol><symbol id="sun-vector2" viewBox="0 0 84 107"><g fill="none">
<path d="M1.5 105.5C19.8333 102.5 56 77.9 82 1.5" stroke="#FFE786" stroke-width="3" stroke-linecap="round" stroke-linejoin="bevel"/>
</g></symbol><symbol id="twitt" viewBox="0 0 16 14"><g fill="none">
<path d="M14.3553 3.74113C14.3655 3.88325 14.3655 4.02541 14.3655 4.16753C14.3655 8.50253 11.066 13.4975 5.03553 13.4975C3.17766 13.4975 1.45178 12.9594 0 12.0254C0.263969 12.0558 0.51775 12.066 0.791875 12.066C2.32484 12.066 3.73603 11.5483 4.86294 10.665C3.42131 10.6345 2.21319 9.69038 1.79694 8.39088C2 8.42131 2.20303 8.44163 2.41625 8.44163C2.71066 8.44163 3.00509 8.401 3.27919 8.32997C1.77666 8.02538 0.649719 6.7056 0.649719 5.11169V5.07109C1.08625 5.31475 1.59391 5.46703 2.13194 5.48731C1.24869 4.89847 0.670031 3.89341 0.670031 2.75634C0.670031 2.14722 0.832438 1.58884 1.11672 1.10153C2.73094 3.09138 5.15734 4.39084 7.87813 4.533C7.82738 4.28934 7.79691 4.03556 7.79691 3.78175C7.79691 1.97463 9.25884 0.502563 11.0761 0.502563C12.0203 0.502563 12.873 0.898501 13.472 1.53809C14.2131 1.39597 14.9238 1.12184 15.5533 0.74622C15.3096 1.50766 14.7918 2.14725 14.1116 2.55331C14.7715 2.48228 15.4111 2.2995 15.9999 2.04572C15.5533 2.69544 14.9949 3.27409 14.3553 3.74113Z" fill="white"/>
</g></symbol></svg>